<svg id="buraco" xmlns="http://www.w3.org/2000/svg" width="456" height="375" viewBox="0 0 456 375">
  <g id="Polygon_2" data-name="Polygon 2" fill="none">
    <path d="M202.366,42.161a30,30,0,0,1,51.268,0l174.65,287.254A30,30,0,0,1,402.65,375H53.35a30,30,0,0,1-25.634-45.585Z" stroke="none"/>
    <path d="M 227.9999847412109 37.74639892578125 C 220.9577331542969 37.74639892578125 214.5692291259766 41.33877563476562 210.9107360839844 47.3560791015625 L 36.26055908203125 334.6097106933594 C 32.45492553710938 340.8689575195312 32.32647705078125 348.4178161621094 35.9169921875 354.8028869628906 C 39.50747680664062 361.1880187988281 46.0244140625 365 53.34979248046875 365 L 402.6501770019531 365 C 409.9755554199219 365 416.492431640625 361.1880187988281 420.0829772949219 354.8029479980469 C 423.6734924316406 348.4178161621094 423.5451049804688 340.8689575195312 419.7394714355469 334.6097106933594 L 245.0892333984375 47.3560791015625 C 241.4307403564453 41.33883666992188 235.042236328125 37.74639892578125 227.9999847412109 37.74639892578125 M 227.9999847412109 27.74636840820312 C 237.8955688476562 27.74636840820312 247.7911376953125 32.55123901367188 253.6338653564453 42.16094970703125 L 428.2841186523438 329.4145812988281 C 440.4393005371094 349.4068298339844 426.047607421875 375 402.6501770019531 375 L 53.34979248046875 375 C 29.95236206054688 375 15.56060791015625 349.4068298339844 27.71591186523438 329.4145812988281 L 202.3661041259766 42.16094970703125 C 208.2088317871094 32.55123901367188 218.1044006347656 27.74636840820312 227.9999847412109 27.74636840820312 Z" stroke="none" fill="#ffa71e"/>
  </g>
  <rect id="Rectangle_49" data-name="Rectangle 49" width="240" height="21" transform="translate(108 317)" fill="#9867b9"/>
  <rect id="Rectangle_50" data-name="Rectangle 50" width="56.082" height="12.923" transform="translate(260.99 314.577)" fill="#9867b9"/>
  <path id="Subtraction_3" data-name="Subtraction 3" d="M144.909,98.412H30a29.974,29.974,0,0,1-30-30V30A29.976,29.976,0,0,1,30,0H144.909a29.977,29.977,0,0,1,30,30V68.412a29.974,29.974,0,0,1-30,30ZM59.543,82.7v4.963h61.2V82.7Zm67.813-14.886V87.248h31.426V67.813Zm-105.854,0V87.248H52.927V67.813Zm38.041,7.443v4.963h61.2V75.256Zm0-7.443v4.963h61.2V67.813ZM36.953,9.1a19.982,19.982,0,0,0-20,20v8.379a19.982,19.982,0,0,0,20,20h101.83a19.982,19.982,0,0,0,20-20V29.1a19.982,19.982,0,0,0-20-20Z" transform="translate(154.313 187.5) rotate(8)" fill="#9761b9"/>
  <ellipse id="Ellipse_8" data-name="Ellipse 8" cx="9.924" cy="14.886" rx="9.924" ry="14.886" transform="translate(158.333 283.686) rotate(8)" fill="#9867b9"/>
  <ellipse id="Ellipse_9" data-name="Ellipse 9" cx="9.924" cy="14.886" rx="9.924" ry="14.886" transform="translate(278.717 300.605) rotate(8)" fill="#9867b9"/>
</svg>
