<svg id="iluminacao" xmlns="http://www.w3.org/2000/svg" width="420" height="345" viewBox="0 0 420 345">
  <rect id="Rectangle_26" data-name="Rectangle 26" width="18.4" height="103.04" transform="matrix(0.921, 0.391, -0.391, 0.921, 186.22, 116.68)" fill="#944bb9"/>
  <rect id="Rectangle_27" data-name="Rectangle 27" width="7.108" height="110.173" rx="3.554" transform="translate(289.401 149.301) rotate(101)" fill="#9554b9"/>
  <rect id="Rectangle_28" data-name="Rectangle 28" width="34.355" height="13.031" transform="translate(252.265 146.586) rotate(11)" fill="#9554b9"/>
  <g id="Polygon_1" data-name="Polygon 1" fill="none">
    <path d="M184.374,42.1a30,30,0,0,1,51.252,0L392.244,299.4A30,30,0,0,1,366.619,345H53.382a30,30,0,0,1-25.626-45.6Z" stroke="none"/>
    <path d="M 210 37.69818115234375 C 202.9619445800781 37.69818115234375 196.5754699707031 41.287353515625 192.9160614013672 47.29922485351562 L 36.29751586914062 304.60107421875 C 32.48757934570312 310.8601684570312 32.35629272460938 318.41064453125 35.94622802734375 324.7985229492188 C 39.5361328125 331.1863403320312 46.05398559570312 335 53.3814697265625 335 L 366.6185302734375 335 C 373.9459838867188 335 380.4638671875 331.1863403320312 384.0537719726562 324.7985229492188 C 387.6437072753906 318.41064453125 387.5124206542969 310.8601684570312 383.7024536132812 304.60107421875 L 227.0839385986328 47.29922485351562 C 223.4245300292969 41.287353515625 217.0380554199219 37.69818115234375 210 37.69818115234375 M 210 27.69818115234375 C 219.8909149169922 27.69818115234375 229.7818298339844 32.49871826171875 235.6259460449219 42.09976196289062 L 392.2444763183594 299.4015808105469 C 404.4134216308594 319.3934631347656 390.0227661132812 345 366.6185302734375 345 L 53.3814697265625 345 C 29.97723388671875 345 15.58657836914062 319.3934631347656 27.75552368164062 299.4015808105469 L 184.3740539550781 42.09976196289062 C 190.2181701660156 32.49871826171875 200.1090850830078 27.69818115234375 210 27.69818115234375 Z" stroke="none" fill="#ffa71e"/>
  </g>
  <rect id="Rectangle_41" data-name="Rectangle 41" width="18.4" height="103.04" transform="translate(146.038 226.579)" fill="#944bb9"/>
</svg>
