<svg id="lixo" xmlns="http://www.w3.org/2000/svg" width="456" height="375" viewBox="0 0 456 375">
  <path id="Path_1" data-name="Path 1" d="M8.872,1.163,26.37,0,17.5,154.681,0,155.844Z" transform="translate(136.208 196.644) rotate(-20)" fill="#9554b9"/>
  <g id="Polygon_2" data-name="Polygon 2" fill="none">
    <path d="M202.366,42.161a30,30,0,0,1,51.268,0l174.65,287.254A30,30,0,0,1,402.65,375H53.35a30,30,0,0,1-25.634-45.585Z" stroke="none"/>
    <path d="M 227.9999847412109 37.74639892578125 C 220.9577331542969 37.74639892578125 214.5692291259766 41.33877563476562 210.9107360839844 47.3560791015625 L 36.26055908203125 334.6097106933594 C 32.45492553710938 340.8689575195312 32.32647705078125 348.4178161621094 35.9169921875 354.8028869628906 C 39.50747680664062 361.1880187988281 46.0244140625 365 53.34979248046875 365 L 402.6501770019531 365 C 409.9755554199219 365 416.492431640625 361.1880187988281 420.0829772949219 354.8029479980469 C 423.6734924316406 348.4178161621094 423.5451049804688 340.8689575195312 419.7394714355469 334.6097106933594 L 245.0892333984375 47.3560791015625 C 241.4307403564453 41.33883666992188 235.042236328125 37.74639892578125 227.9999847412109 37.74639892578125 M 227.9999847412109 27.74636840820312 C 237.8955688476562 27.74636840820312 247.7911376953125 32.55123901367188 253.6338653564453 42.16094970703125 L 428.2841186523438 329.4145812988281 C 440.4393005371094 349.4068298339844 426.047607421875 375 402.6501770019531 375 L 53.34979248046875 375 C 29.95236206054688 375 15.56060791015625 349.4068298339844 27.71591186523438 329.4145812988281 L 202.3661041259766 42.16094970703125 C 208.2088317871094 32.55123901367188 218.1044006347656 27.74636840820312 227.9999847412109 27.74636840820312 Z" stroke="none" fill="#ffa71e"/>
  </g>
  <path id="Path_2" data-name="Path 2" d="M0,0,15.621,1l8.5,155L8.5,155Z" transform="translate(285.426 188.158) rotate(19)" fill="#9554b9"/>
  <rect id="Rectangle_31" data-name="Rectangle 31" width="67" height="14" transform="translate(190 329)" fill="#9554b9"/>
  <rect id="Rectangle_32" data-name="Rectangle 32" width="16.176" height="26.96" transform="matrix(0.809, 0.588, -0.588, 0.809, 208.395, 215.438)" fill="#965bb9"/>
  <rect id="Rectangle_33" data-name="Rectangle 33" width="16.176" height="26.96" transform="matrix(0.995, -0.105, 0.105, 0.995, 233.509, 233.814)" fill="#965bb9"/>
  <rect id="Rectangle_34" data-name="Rectangle 34" width="16.176" height="26.96" transform="matrix(0.809, 0.588, -0.588, 0.809, 229.963, 275.648)" fill="#965bb9"/>
  <rect id="Rectangle_35" data-name="Rectangle 35" width="16.176" height="26.96" transform="translate(273.158 311.09) rotate(-25)" fill="#965bb9"/>
  <rect id="Rectangle_36" data-name="Rectangle 36" width="16.176" height="26.96" transform="translate(327.172 323.93) rotate(-8)" fill="#965bb9"/>
  <rect id="Rectangle_37" data-name="Rectangle 37" width="16.176" height="26.96" transform="translate(299.182 269.54) rotate(-31)" fill="#965bb9"/>
  <rect id="Rectangle_38" data-name="Rectangle 38" width="18" height="30" transform="matrix(0.809, 0.588, -0.588, 0.809, 322.536, 289.575)" fill="#965bb9"/>
</svg>
